<svg xmlns="http://www.w3.org/2000/svg" xmlns:xlink="http://www.w3.org/1999/xlink"><symbol id="icon-close" viewBox="0 0 20 20"><path d="M.293 18.291a1 1 0 101.414 1.414L10 11.413l8.292 8.292a1 1 0 101.414-1.414l-8.292-8.292 8.292-8.292A1 1 0 1018.291.293L9.999 8.585 1.707.293A1 1 0 10.293 1.707L8.585 10 .293 18.291z"/></symbol><symbol id="icon-ruble" viewBox="0 0 30 42"><path class="st0" d="M18.5 23C24.9 23 30 17.9 30 11.5S24.9 0 18.5 0H4v17H0v6h3.7v5.3H0v6h3.7V42h6v-7.7H21v-6H9.7V23h8.8zM10 6h8.5c3 0 5.5 2.5 5.5 5.5S21.5 17 18.5 17H10V6z"/></symbol></svg>